<svg t="1701335149478" class="icon" viewBox="0 0 1024 1024" version="1.1" xmlns="http://www.w3.org/2000/svg" p-id="4244" width="200" height="200"><path d="M554.666667 555.52l106.026666-105.984L721.066667 509.866667l-150.826667 150.826666L509.866667 721.066667 298.666667 509.866667l60.330666-60.288L469.333333 559.786667V128h85.333334v427.52zM341.333333 128v85.333333H213.333333v597.333334h597.333334V213.333333h-128V128h128a85.333333 85.333333 0 0 1 85.333333 85.333333v597.333334a85.333333 85.333333 0 0 1-85.333333 85.333333H213.333333a85.333333 85.333333 0 0 1-85.333333-85.333333V213.333333a85.333333 85.333333 0 0 1 85.333333-85.333333h128z" fill="#666666" p-id="4245"></path></svg>