<?xml version="1.0" standalone="no"?><!DOCTYPE svg PUBLIC "-//W3C//DTD SVG 1.1//EN" "http://www.w3.org/Graphics/SVG/1.1/DTD/svg11.dtd"><svg t="1698844480988" class="icon" viewBox="0 0 1024 1024" version="1.1" xmlns="http://www.w3.org/2000/svg" p-id="10246" xmlns:xlink="http://www.w3.org/1999/xlink" width="200" height="200"><path d="M23.243638 506.137893c0 279.589221 220.148993 506.137893 491.495425 506.137893s491.495425-226.59987 491.495425-506.137893-220.148993-506.137893-491.495425-506.137893-491.495425 226.59987-491.495425 506.137893" fill="#1370B3" p-id="10247"></path><path d="M23.243638 546.942253c0 257.062347 220.148993 465.435928 491.495425 465.435928s491.495425-208.373581 491.495425-465.435928-220.148993-465.435928-491.495425-465.435928-491.495425 208.373581-491.495425 465.435928z m0 0" fill="#1678BC" p-id="10248"></path><path d="M754.752662 118.778061L675.80621 89.902705l99.835008 88.315584-37.322934-2.252687-7.679616 15.768811a101.729314 101.729314 0 0 0-68.041398-22.475676 35.838208 35.838208 0 0 0-25.18914 23.80681l5.9901 25.59872 76.335383 6.246087c5.9901 8.80596 18.021499 8.447578 18.021499 26.571472l28.568172-1.228739 19.813409-6.655667a262.59167 262.59167 0 0 1 48.279186 104.852358l-22.424479 16.178391-6.092495 19.762211-0.511974 69.577322s-14.284086 14.693665-16.536774 10.239488 0.665567-57.033948-7.628418-62.256088a23.653217 23.653217 0 0 0-25.240338-1.075146c-8.549973-17.663117-20.069397-30.20649-35.172641-36.19659a176.887156 176.887156 0 0 0-15.359232-28.312184 16.434378 16.434378 0 0 0-12.133794 9.061947 36.657367 36.657367 0 0 0-2.150292-26.059497l-35.223839-6.758063-24.625969-1.638318c-9.113144 2.662267-15.359232 9.471526-16.99755 22.0149l-13.772111 11.929003-8.293986 29.899305c-2.099095 7.884406 25.59872 20.478976 36.81096 17.509525s32.459177 28.824159 32.459177 28.824158l-5.631719 22.578072s-8.703565 15.922404-10.905054 12.543372l-20.939753-32.663966c-14.642468-8.703565-29.79691-7.218839-44.951353 0-3.532623 31.384031-4.454177 69.167742 0 84.834158s10.905055 22.578071 17.458327 20.478976 32.971151-22.578071 32.971152-22.578071 24.267587 65.583921 24.267586 69.116544 36.145393 30.411279 38.346883 30.411279 9.829909 3.481426 10.956252-4.505374-4.40298-22.578071-1.126343-24.881956 7.679616 2.252687 8.805959 13.567321c1.587121 16.075996 3.020649 49.149543 1.075147 56.317185-4.454177 16.99755-26.366682 40.957952-26.366682 40.957952s-6.553272 24.830758-3.225439 26.059497 14.284086 33.943903 18.738263 42.903455 77.922504 238.375281 223.937603 46.896855c89.237138-116.986151 108.948153-278.104495 59.235439-411.01305-31.640018-84.680566-107.20744-129.273536-159.224039-236.429778z m0 0" fill="#10549A" p-id="10249"></path><path d="M127.891205 99.015849c0.665567 35.275036 15.666417 69.986901 52.630969 104.084396 42.033098-11.519424 81.915904-12.696965 119.187641-2.815859 42.749863-46.384881 88.059597-63.177641 135.673216-60.515374a202.844258 202.844258 0 0 0-69.270137 102.855657 59.389031 59.389031 0 0 0 34.097495 38.449277c33.175941 5.119744 70.140493 1.587121 106.490676 11.365832l-2.20149 28.312184c-22.424479 42.289086-69.526124 55.549223-107.514624 89.902705a134.086096 134.086096 0 0 1-2.20149 67.171042c-14.028099-11.621819-28.516974-17.253537-43.825009-15.768812l-2.713464 1.740713c-46.692065 46.948053-7.270036 86.728464 66.556672 123.897805a111.815209 111.815209 0 0 0 58.211489-4.556572c38.910054-22.014899 135.519624-44.746563 153.592321 32.715164-8.908355 11.365832-22.475676 12.952952-37.322934 11.365832-5.119744 4.249388-14.79606 6.143693-19.762212 10.239488-57.085146 46.077696-116.064597 63.689616-185.078746 52.579771a177.347933 177.347933 0 0 0 47.716014 41.265137c38.39808 2.815859 60.156992 8.140393 62.665667 16.434378h-35.326234c64.559972 28.824159 127.9936 33.124744 188.816159 1.638318 0.40958 5.836508-3.327834 13.874506-8.805959 22.680466 20.478976-17.458327 38.910054-39.678016 60.412979-55.446828l3.327834 21.502925c35.172641-7.884406 64.099195-64.662367 85.653317-177.552722l14.232888 40.650767c13.976901-61.436928 13.618519-134.854057 7.167642-214.312484a179.19104 179.19104 0 0 1 43.313034 72.956352c2.815859-112.634368-29.080146-216.513974-107.514624-277.080546 17.304735-3.583821 43.620219 7.218839 94.459277 46.384881-28.260987-56.931553-77.461727-109.818509-146.066297-159.531223 93.79371 28.056197 178.218289 85.243738 243.699815 195.676616 0.665567-23.243638-53.450127-99.886206-103.879606-143.352833l2.867057-14.847257 59.440228 54.371681 3.225439-12.38978c77.820109 92.974551 94.049698 173.354532 95.329633 250.867456-1.945503 54.781261-9.471526 106.490675-27.953802 152.619569 33.431928-23.294835 48.381581-47.818409 32.715164-126.048097l11.929004-48.99595c17.099945 76.79616 18.021499 160.19679-22.270887 259.571021-19.455027 54.371681-67.171041 108.180191-100.807759 162.295885l43.005849-30.718464 46.384881-93.742513a155.128244 155.128244 0 0 1-14.693665 94.971252 366.061697 366.061697 0 0 1-134.188491 125.280136c-0.511974 14.079296-8.549973 29.131343-28.260987 45.463326-66.556672 51.453427-157.022549 72.956352-270.117694 66.556673l16.434378 15.820009a391.660417 391.660417 0 0 1-133.113344-21.246938l26.0083 17.355932c-253.632118-63.331233-414.033698-230.081296-416.747163-456.98835l-23.448428 43.005849c-0.921554-48.483976 16.434378-90.414679 24.523574-135.468426l3.891006-37.425329-16.843958 40.957952C19.506225 416.081596 31.435228 357.358132 75.260237 287.012849a274.879056 274.879056 0 0 1 52.630968-187.997z m0 0" fill="#E36724" p-id="10250"></path><path d="M366.112894 242.624669c-15.820009 66.556672-10.495475 124.614569 30.718464 168.029998a264.229989 264.229989 0 0 1 25.59872-20.478976c23.60202-14.437678 52.118994-25.59872 81.915905-69.167741l2.20149-28.312185c-16.741563-6.143693-60.412979-8.80596-106.490676-11.365831-18.789461-8.293985-30.308885-21.093345-34.046298-38.449278z m-18.021499 221.172941c-94.817659-4.300585-123.385831 58.160292-109.357732 163.371032 2.20149-56.317184 89.083546-124.665767 89.237138-125.945703a56.624369 56.624369 0 0 1 20.120594-37.425329z m250.560272 163.831809c-20.222989-10.546673-49.40553-10.956252-90.926653 2.815859-92.155392 23.090045-168.183591 10.239488-231.617219-30.41128 10.495475 34.711864 38.756462 65.174341 103.214039 87.035649a219.381031 219.381031 0 0 0 102.958052-2.40628 180.010199 180.010199 0 0 0 55.498025-27.237038c20.478976-16.99755 40.59957-29.694515 60.822559-29.79691z m-418.129493-424.938754l-97.633518 76.796161c14.386481-37.578921 34.302285-73.877906 72.341982-104.237988z m0 0" fill="#D5562C" p-id="10251"></path><path d="M366.880856 360.839558c-1.433528-4.505375 23.755612-14.59127 26.315484-14.693665s37.066947-6.246088 40.957952-4.505375l12.082596 5.631718c24.011599-9.215539 36.19659-17.663117 46.692066-29.899305l-0.665567 23.090046c-8.549973 13.106545-59.133043 44.439378-83.912605 59.184241-1.075146 0.511974-1.843108 2.150292-2.713464 2.815859a45.719314 45.719314 0 0 0-8.80596 8.037998c-1.279936 0.921554-24.113994-32.356782-29.950502-49.866307z m0 0" fill="#F0B991" p-id="10252"></path><path d="M468.456577 284.40178l19.301435 8.549972 5.119744 24.318784-0.665567 23.090046 12.696966-20.837358a47.101645 47.101645 0 0 0 0.511974-25.59872 22.680466 22.680466 0 0 0-13.720914-6.706865z m0 0" fill="#7E3430" p-id="10253"></path><path d="M226.446278 194.499075a218.459477 218.459477 0 0 1 73.263537 5.785311c40.957952-45.719314 86.728464-62.256087 135.673216-60.515374a203.663417 203.663417 0 0 0-68.450978 100.346982c-12.850557 41.521124-10.239488 81.19914 0 119.80201a148.728564 148.728564 0 0 0 29.950503 50.787861 138.949853 138.949853 0 0 1-2.20149 67.171041c-14.898455-12.696965-30.052897-17.919104-45.258537-14.949652-94.920054-5.478126-125.280136 56.317184-110.586471 164.343782-38.039698-99.169442-6.143693-173.098545 93.384131-219.483425-35.838208-54.627669-21.912504-133.113344-6.60447-183.286836-21.861307-16.075996-58.211489-24.523574-99.169441-30.0017z m399.954402 421.354932c-13.618519-51.19744-57.187541-64.40638-126.713664-44.490575-33.073546 18.584671-78.588071 24.165192-100.500575 7.782011a5.682916 5.682916 0 0 0-1.177541-0.819159c-21.144543-11.058647-39.166042-22.424479-52.989351-38.705265a42.033098 42.033098 0 0 0-5.478126-4.812559l-6.60447 17.202339c-1.075146 39.831608 59.389031 73.877906 136.953152 60.0034 69.218939-12.440978 119.648418-8.447578 156.459378 3.839808z m0 0" fill="#FF9D00" p-id="10254"></path><path d="M758.541273 672.273586a566.141293 566.141293 0 0 0 30.360082-111.661617l14.232888 40.59957a740.366182 740.366182 0 0 0 7.167642-214.312484 184.310784 184.310784 0 0 1 43.313034 72.956352c-0.665567-139.052247-40.957952-226.80466-107.514624-277.029348 22.270886-1.075146 52.272586 11.365832 94.40808 46.333683-34.40468-66.966252-87.445228-116.218189-146.117495-159.531223 77.20574 20.478976 157.9953 59.59382 243.699815 195.676616l-32.459177-86.523674-68.758162-71.676416 58.518674 53.142943 4.454178-11.41703c121.491525 149.189341 105.825109 277.950902 67.427028 403.435829z m0 0" fill="#F5B044" p-id="10255"></path><path d="M874.913054 578.838258c49.763912-76.79616 63.536023-171.972201 42.903455-284.708964 76.79616 144.530373 76.79616 309.130143-30.718464 502.144492l-72.495575 45.156143z m0 0" fill="#FF9D00" p-id="10256"></path><path d="M714.869857 732.430578c37.322934-27.80021 59.389031-87.035648 73.519524-171.255437 20.478976 31.384031 26.366682 78.280886 17.611919 140.229789 32.151992-40.497175 40.189991-120.109195 47.20404-201.308335 52.989351 154.565072 20.478976 289.879906-68.80936 369.338333 5.119744-4.146993-47.050447-16.434378-29.694515-38.449277 38.551672-48.586371 49.968702-150.110894 39.882806-152.0052-37.220539 49.763912-60.720164 58.467477-79.714414 53.39893z m0 0" fill="#FF9D00" p-id="10257"></path><path d="M611.553422 830.780861c94.459277-24.267587 149.957302-72.80276 180.163792-136.901955-1.843108 88.571571-34.148693 155.9986-113.095145 191.171241-47.869607-13.00415-66.556672-31.844808-67.068647-54.269286z m0 0" fill="#FF9D00" p-id="10258"></path><path d="M771.238238 912.79916l-24.318784 24.421179 26.366682 0.511974c-32.151992 18.175091-66.556672 23.60202-101.063747 26.059497 24.472376-20.478976 57.853107-37.220539 98.811059-50.890255z m0 0" fill="#10549A" p-id="10259"></path></svg>