<?xml version="1.0" standalone="no"?><!DOCTYPE svg PUBLIC "-//W3C//DTD SVG 1.1//EN" "http://www.w3.org/Graphics/SVG/1.1/DTD/svg11.dtd"><svg t="1698844203677" class="icon" viewBox="0 0 1024 1024" version="1.1" xmlns="http://www.w3.org/2000/svg" p-id="6999" xmlns:xlink="http://www.w3.org/1999/xlink" width="200" height="200"><path d="M480 608v224a64 64 0 0 1-64 64H192a64 64 0 0 1-64-64v-224a64 64 0 0 1 64-64h224a64 64 0 0 1 64 64z m416 224v64h-64v-64h64z m-160 0v64h-64v-64h64z m0-224v96h96v-160h64v160a64 64 0 0 1-64 64h-96a64 64 0 0 1-64-64v-96h-64v288h-64v-288a64 64 0 0 1 64-64h64a64 64 0 0 1 64 64z m-320 0H192v224h224v-224z m-42.656 42.656v138.784H234.624v-138.784h138.72zM480 192v224a64 64 0 0 1-64 64H192a64 64 0 0 1-64-64V192a64 64 0 0 1 64-64h224a64 64 0 0 1 64 64z m416 0v224a64 64 0 0 1-64 64h-224a64 64 0 0 1-64-64V192a64 64 0 0 1 64-64h224a64 64 0 0 1 64 64zM416 192H192v224h224V192z m416 0h-224v224h224V192zM373.344 234.848v138.336H234.624V234.848h138.72z m415.936 0v138.336h-138.592V234.848h138.56z" fill="#181818" p-id="7000"></path></svg>