<?xml version="1.0" standalone="no"?>
<!DOCTYPE svg PUBLIC "-//W3C//DTD SVG 20010904//EN"
 "http://www.w3.org/TR/2001/REC-SVG-20010904/DTD/svg10.dtd">
<svg version="1.0" xmlns="http://www.w3.org/2000/svg"
 width="512.000000pt" height="512.000000pt" viewBox="200 256 700 580"
 preserveAspectRatio="xMidYMid meet">

<g transform="translate(0.000000,1024.000000) scale(0.100000,-0.100000)"
fill="#000000" stroke="none">
<path d="M4895 8190 c-437 -37 -925 -182 -1281 -383 -265 -149 -476 -308 -695
-527 -557 -556 -856 -1228 -900 -2019 -40 -732 179 -1454 614 -2029 582 -768
1518 -1233 2482 -1233 520 0 954 101 1410 326 315 156 548 320 799 565 424
414 676 849 821 1415 67 261 95 494 95 785 0 298 -27 524 -97 795 -189 741
-630 1355 -1289 1791 -409 271 -864 439 -1354 499 -156 19 -459 27 -605 15z
m1325 -1058 c94 -34 201 -104 264 -173 61 -68 119 -177 135 -257 12 -60 16
-692 4 -692 -5 0 -46 11 -93 24 l-85 23 -1 282 c-1 155 -4 300 -8 322 -16 101
-99 207 -208 265 l-73 39 -1175 0 -1175 0 -67 -33 c-84 -41 -147 -102 -190
-183 l-33 -64 -3 -1217 -2 -1218 -95 0 -95 0 0 1198 c0 1039 2 1206 15 1257
56 217 249 400 470 445 22 4 560 7 1195 7 l1155 -2 65 -23z m-145 -397 c53
-20 100 -70 114 -122 6 -22 11 -140 11 -274 l0 -236 -162 -6 c-319 -12 -567
-90 -818 -255 -111 -74 -306 -269 -386 -387 -156 -229 -224 -448 -225 -718 0
-162 11 -253 46 -383 14 -51 25 -94 25 -98 0 -3 -209 -6 -464 -6 l-463 0 -7
31 c-3 17 -6 440 -6 940 l0 908 308 3 c297 3 309 4 354 26 25 13 64 43 87 67
61 66 71 114 71 336 l0 188 38 3 c20 2 351 2 735 2 626 -2 703 -4 742 -19z
m-1775 -163 c0 -159 -2 -181 -18 -195 -15 -14 -55 -17 -277 -19 l-260 -3 0
130 c1 138 9 169 58 216 46 44 71 48 290 49 l207 0 0 -178z m2405 -991 c134
-11 218 -40 308 -104 84 -60 145 -129 190 -215 65 -124 69 -156 65 -607 l-3
-400 -28 -70 c-39 -98 -79 -155 -158 -229 -76 -70 -182 -128 -267 -145 -29 -6
-97 -11 -152 -11 l-98 0 -59 -52 c-32 -29 -92 -84 -133 -123 -528 -494 -633
-590 -650 -593 -24 -4 -33 25 -20 68 45 152 190 674 190 685 0 10 -38 14 -182
17 -157 3 -192 7 -242 26 -130 48 -260 160 -323 279 -65 121 -68 144 -65 582
2 439 4 461 69 583 64 123 194 235 330 284 36 14 94 19 238 24 311 10 872 10
990 1z m-1847 -1659 l69 -97 -526 -5 -526 -5 -3 -37 c-6 -77 53 -159 137 -187
23 -7 156 -11 412 -11 l379 0 0 -55 0 -55 -737 0 c-796 0 -818 2 -919 53 -152
78 -244 233 -244 412 l0 85 944 0 944 -1 70 -97z"/>
<path d="M3922 4905 c-37 -31 -48 -73 -32 -120 43 -130 241 -76 216 59 -15 80
-121 114 -184 61z"/>
<path d="M3937 6584 c-4 -4 -7 -24 -7 -45 0 -45 15 -52 96 -47 l49 3 0 45 0
45 -65 3 c-36 2 -69 0 -73 -4z"/>
<path d="M5565 4847 c-53 -21 -73 -36 -96 -73 -29 -48 -31 -127 -3 -174 45
-78 157 -103 241 -55 117 69 106 238 -21 296 -47 21 -78 23 -121 6z"/>
<path d="M6120 4849 c-71 -21 -120 -89 -120 -167 0 -57 27 -104 80 -140 50
-34 142 -28 195 12 148 113 24 348 -155 295z"/>
<path d="M6670 4849 c-71 -21 -120 -89 -120 -167 0 -90 72 -162 162 -162 142
0 223 136 153 255 -38 65 -120 96 -195 74z"/>
</g>
</svg>
